<mxfile host="app.diagrams.net" modified="2023-11-13T19:56:46.791Z" agent="Mozilla/5.0 (Windows NT 10.0; Win64; x64) AppleWebKit/537.36 (KHTML, like Gecko) Chrome/119.0.0.0 Safari/537.36" etag="_FscUEbXCpFVk1TJTHpD" version="22.1.0" type="device">
  <diagram name="Page-1" id="cpg3IhzVYbS5RQpEwwu0">
    <mxGraphModel dx="1114" dy="602" grid="1" gridSize="10" guides="1" tooltips="1" connect="1" arrows="1" fold="1" page="1" pageScale="1" pageWidth="1169" pageHeight="827" math="0" shadow="0">
      <root>
        <mxCell id="0" />
        <mxCell id="1" parent="0" />
        <mxCell id="ZVn86jo5iJJzKrJMQweK-2" value="User" style="shape=umlActor;verticalLabelPosition=bottom;verticalAlign=top;html=1;outlineConnect=0;fontSize=16;" parent="1" vertex="1">
          <mxGeometry x="80" y="250" width="30" height="60" as="geometry" />
        </mxCell>
        <mxCell id="ZVn86jo5iJJzKrJMQweK-3" value="" style="rounded=0;whiteSpace=wrap;html=1;fillColor=none;dashed=1;strokeWidth=2;" parent="1" vertex="1">
          <mxGeometry x="180" y="60" width="440" height="400" as="geometry" />
        </mxCell>
        <mxCell id="ZVn86jo5iJJzKrJMQweK-4" value="Frontend" style="text;html=1;strokeColor=none;fillColor=none;align=left;verticalAlign=middle;whiteSpace=wrap;rounded=0;spacingLeft=5;fontSize=16;" parent="1" vertex="1">
          <mxGeometry x="180" y="60" width="100" height="30" as="geometry" />
        </mxCell>
        <mxCell id="ZVn86jo5iJJzKrJMQweK-5" value="" style="rounded=1;whiteSpace=wrap;html=1;fillColor=#d5e8d4;strokeColor=#82b366;" parent="1" vertex="1">
          <mxGeometry x="200" y="240" width="160" height="80" as="geometry" />
        </mxCell>
        <mxCell id="ZVn86jo5iJJzKrJMQweK-6" value="PanelDrawer" style="text;html=1;strokeColor=none;fillColor=none;align=center;verticalAlign=middle;whiteSpace=wrap;rounded=0;fontSize=18;fontStyle=1" parent="1" vertex="1">
          <mxGeometry x="210" y="250" width="140" height="60" as="geometry" />
        </mxCell>
        <mxCell id="ZVn86jo5iJJzKrJMQweK-8" value="" style="rounded=1;whiteSpace=wrap;html=1;fillColor=#d5e8d4;strokeColor=#82b366;" parent="1" vertex="1">
          <mxGeometry x="440" y="240" width="160" height="80" as="geometry" />
        </mxCell>
        <mxCell id="ZVn86jo5iJJzKrJMQweK-9" value="SmartWalkAPI" style="text;html=1;strokeColor=none;fillColor=none;align=center;verticalAlign=middle;whiteSpace=wrap;rounded=0;fontSize=18;fontStyle=1" parent="1" vertex="1">
          <mxGeometry x="450" y="250" width="140" height="60" as="geometry" />
        </mxCell>
        <mxCell id="ZVn86jo5iJJzKrJMQweK-10" style="rounded=0;orthogonalLoop=1;jettySize=auto;html=1;endArrow=classic;endFill=1;" parent="1" source="ZVn86jo5iJJzKrJMQweK-2" target="ZVn86jo5iJJzKrJMQweK-5" edge="1">
          <mxGeometry relative="1" as="geometry">
            <mxPoint x="110" y="280" as="sourcePoint" />
            <mxPoint x="200" y="280" as="targetPoint" />
          </mxGeometry>
        </mxCell>
        <mxCell id="ZVn86jo5iJJzKrJMQweK-11" style="rounded=0;orthogonalLoop=1;jettySize=auto;html=1;endArrow=classic;endFill=1;" parent="1" source="ZVn86jo5iJJzKrJMQweK-5" target="ZVn86jo5iJJzKrJMQweK-8" edge="1">
          <mxGeometry relative="1" as="geometry">
            <mxPoint x="400" y="340" as="sourcePoint" />
            <mxPoint x="490" y="340" as="targetPoint" />
          </mxGeometry>
        </mxCell>
        <mxCell id="ZVn86jo5iJJzKrJMQweK-12" value="" style="rounded=1;whiteSpace=wrap;html=1;fillColor=#f5f5f5;strokeColor=#666666;fontColor=#333333;" parent="1" vertex="1">
          <mxGeometry x="680" y="120" width="160" height="80" as="geometry" />
        </mxCell>
        <mxCell id="ZVn86jo5iJJzKrJMQweK-13" value="Solid Server" style="text;html=1;strokeColor=none;fillColor=none;align=center;verticalAlign=middle;whiteSpace=wrap;rounded=0;fontSize=18;fontStyle=1" parent="1" vertex="1">
          <mxGeometry x="690" y="130" width="140" height="30" as="geometry" />
        </mxCell>
        <mxCell id="ZVn86jo5iJJzKrJMQweK-14" value="Personal storage" style="text;html=1;strokeColor=none;fillColor=none;align=center;verticalAlign=middle;whiteSpace=wrap;rounded=0;fontSize=16;" parent="1" vertex="1">
          <mxGeometry x="690" y="160" width="140" height="30" as="geometry" />
        </mxCell>
        <mxCell id="ZVn86jo5iJJzKrJMQweK-15" value="" style="rounded=1;whiteSpace=wrap;html=1;fillColor=#f5f5f5;strokeColor=#666666;fontColor=#333333;" parent="1" vertex="1">
          <mxGeometry x="680" y="360" width="160" height="80" as="geometry" />
        </mxCell>
        <mxCell id="ZVn86jo5iJJzKrJMQweK-16" value="OpenStreetMap" style="text;html=1;strokeColor=none;fillColor=none;align=center;verticalAlign=middle;whiteSpace=wrap;rounded=0;fontSize=18;fontStyle=1" parent="1" vertex="1">
          <mxGeometry x="690" y="370" width="140" height="30" as="geometry" />
        </mxCell>
        <mxCell id="ZVn86jo5iJJzKrJMQweK-17" value="Tile provider" style="text;html=1;strokeColor=none;fillColor=none;align=center;verticalAlign=middle;whiteSpace=wrap;rounded=0;fontSize=16;" parent="1" vertex="1">
          <mxGeometry x="690" y="400" width="140" height="30" as="geometry" />
        </mxCell>
        <mxCell id="ZVn86jo5iJJzKrJMQweK-18" value="" style="rounded=1;whiteSpace=wrap;html=1;fillColor=#dae8fc;strokeColor=#6c8ebf;" parent="1" vertex="1">
          <mxGeometry x="680" y="240" width="160" height="80" as="geometry" />
        </mxCell>
        <mxCell id="ZVn86jo5iJJzKrJMQweK-19" value="Backend" style="text;html=1;strokeColor=none;fillColor=none;align=center;verticalAlign=middle;whiteSpace=wrap;rounded=0;fontSize=18;fontStyle=1" parent="1" vertex="1">
          <mxGeometry x="690" y="250" width="140" height="30" as="geometry" />
        </mxCell>
        <mxCell id="ZVn86jo5iJJzKrJMQweK-20" value="ASP.NET Core" style="text;html=1;strokeColor=none;fillColor=none;align=center;verticalAlign=middle;whiteSpace=wrap;rounded=0;fontSize=16;" parent="1" vertex="1">
          <mxGeometry x="690" y="280" width="140" height="30" as="geometry" />
        </mxCell>
        <mxCell id="ZVn86jo5iJJzKrJMQweK-21" style="rounded=0;orthogonalLoop=1;jettySize=auto;html=1;endArrow=classic;endFill=1;" parent="1" source="ZVn86jo5iJJzKrJMQweK-8" target="ZVn86jo5iJJzKrJMQweK-18" edge="1">
          <mxGeometry relative="1" as="geometry">
            <mxPoint x="870" y="410" as="sourcePoint" />
            <mxPoint x="450" y="290" as="targetPoint" />
          </mxGeometry>
        </mxCell>
        <mxCell id="ZVn86jo5iJJzKrJMQweK-22" value="" style="rounded=1;whiteSpace=wrap;html=1;fillColor=#d5e8d4;strokeColor=#82b366;" parent="1" vertex="1">
          <mxGeometry x="440" y="360" width="160" height="80" as="geometry" />
        </mxCell>
        <mxCell id="ZVn86jo5iJJzKrJMQweK-23" value="Map" style="text;html=1;strokeColor=none;fillColor=none;align=center;verticalAlign=middle;whiteSpace=wrap;rounded=0;fontSize=18;fontStyle=1" parent="1" vertex="1">
          <mxGeometry x="450" y="370" width="140" height="60" as="geometry" />
        </mxCell>
        <mxCell id="ZVn86jo5iJJzKrJMQweK-24" value="" style="endArrow=classic;html=1;rounded=0;endFill=1;" parent="1" source="ZVn86jo5iJJzKrJMQweK-5" target="ZVn86jo5iJJzKrJMQweK-22" edge="1">
          <mxGeometry width="50" height="50" relative="1" as="geometry">
            <mxPoint x="540" y="310" as="sourcePoint" />
            <mxPoint x="590" y="260" as="targetPoint" />
          </mxGeometry>
        </mxCell>
        <mxCell id="ZVn86jo5iJJzKrJMQweK-25" style="rounded=0;orthogonalLoop=1;jettySize=auto;html=1;endArrow=classic;endFill=1;" parent="1" source="ZVn86jo5iJJzKrJMQweK-22" target="ZVn86jo5iJJzKrJMQweK-15" edge="1">
          <mxGeometry relative="1" as="geometry">
            <mxPoint x="600" y="500" as="sourcePoint" />
            <mxPoint x="680" y="500" as="targetPoint" />
          </mxGeometry>
        </mxCell>
        <mxCell id="ZVn86jo5iJJzKrJMQweK-26" value="" style="rounded=1;whiteSpace=wrap;html=1;fillColor=#d5e8d4;strokeColor=#82b366;" parent="1" vertex="1">
          <mxGeometry x="440" y="120" width="160" height="80" as="geometry" />
        </mxCell>
        <mxCell id="ZVn86jo5iJJzKrJMQweK-27" value="Storage" style="text;html=1;strokeColor=none;fillColor=none;align=center;verticalAlign=middle;whiteSpace=wrap;rounded=0;fontSize=18;fontStyle=1" parent="1" vertex="1">
          <mxGeometry x="450" y="130" width="140" height="60" as="geometry" />
        </mxCell>
        <mxCell id="ZVn86jo5iJJzKrJMQweK-28" value="" style="endArrow=classic;html=1;rounded=0;endFill=1;" parent="1" source="ZVn86jo5iJJzKrJMQweK-26" target="ZVn86jo5iJJzKrJMQweK-12" edge="1">
          <mxGeometry width="50" height="50" relative="1" as="geometry">
            <mxPoint x="370" y="330" as="sourcePoint" />
            <mxPoint x="450" y="370" as="targetPoint" />
          </mxGeometry>
        </mxCell>
        <mxCell id="ZVn86jo5iJJzKrJMQweK-29" value="" style="endArrow=classic;html=1;rounded=0;endFill=1;" parent="1" source="ZVn86jo5iJJzKrJMQweK-5" target="ZVn86jo5iJJzKrJMQweK-26" edge="1">
          <mxGeometry width="50" height="50" relative="1" as="geometry">
            <mxPoint x="390" y="-10" as="sourcePoint" />
            <mxPoint x="470" y="30" as="targetPoint" />
          </mxGeometry>
        </mxCell>
        <mxCell id="ZVn86jo5iJJzKrJMQweK-30" value="" style="rounded=1;whiteSpace=wrap;html=1;fillColor=#d5e8d4;strokeColor=#82b366;" parent="1" vertex="1">
          <mxGeometry x="200" y="120" width="160" height="80" as="geometry" />
        </mxCell>
        <mxCell id="ZVn86jo5iJJzKrJMQweK-31" value="SessionProvider" style="text;html=1;strokeColor=none;fillColor=none;align=center;verticalAlign=middle;whiteSpace=wrap;rounded=0;fontSize=18;fontStyle=1" parent="1" vertex="1">
          <mxGeometry x="200" y="130" width="160" height="60" as="geometry" />
        </mxCell>
        <mxCell id="ZVn86jo5iJJzKrJMQweK-32" value="log in" style="endArrow=classic;html=1;rounded=1;dashed=1;fontSize=16;" parent="1" source="ZVn86jo5iJJzKrJMQweK-30" target="ZVn86jo5iJJzKrJMQweK-12" edge="1">
          <mxGeometry width="50" height="50" relative="1" as="geometry">
            <mxPoint x="420" y="230" as="sourcePoint" />
            <mxPoint x="470" y="180" as="targetPoint" />
            <Array as="points">
              <mxPoint x="360" y="90" />
              <mxPoint x="680" y="90" />
            </Array>
          </mxGeometry>
        </mxCell>
        <mxCell id="ZVn86jo5iJJzKrJMQweK-34" style="rounded=0;orthogonalLoop=1;jettySize=auto;html=1;endArrow=classic;endFill=1;" parent="1" source="ZVn86jo5iJJzKrJMQweK-2" target="ZVn86jo5iJJzKrJMQweK-30" edge="1">
          <mxGeometry relative="1" as="geometry">
            <mxPoint x="120" y="290" as="sourcePoint" />
            <mxPoint x="210" y="290" as="targetPoint" />
          </mxGeometry>
        </mxCell>
        <mxCell id="ZVn86jo5iJJzKrJMQweK-35" value="" style="rounded=0;whiteSpace=wrap;html=1;fillColor=none;" parent="1" vertex="1">
          <mxGeometry x="880" y="140" width="190" height="280" as="geometry" />
        </mxCell>
        <mxCell id="ZVn86jo5iJJzKrJMQweK-36" value="" style="rounded=0;whiteSpace=wrap;html=1;fillColor=#f5f5f5;fontColor=#333333;strokeColor=#666666;" parent="1" vertex="1">
          <mxGeometry x="890" y="190" width="40" height="40" as="geometry" />
        </mxCell>
        <mxCell id="ZVn86jo5iJJzKrJMQweK-37" value="Legend" style="text;html=1;strokeColor=none;fillColor=none;align=center;verticalAlign=middle;whiteSpace=wrap;rounded=0;fontSize=18;fontStyle=1" parent="1" vertex="1">
          <mxGeometry x="880" y="150" width="190" height="30" as="geometry" />
        </mxCell>
        <mxCell id="ZVn86jo5iJJzKrJMQweK-38" value="External system" style="text;html=1;strokeColor=none;fillColor=none;align=left;verticalAlign=middle;whiteSpace=wrap;rounded=0;fontSize=16;spacingLeft=5;" parent="1" vertex="1">
          <mxGeometry x="930" y="190" width="130" height="40" as="geometry" />
        </mxCell>
        <mxCell id="ZVn86jo5iJJzKrJMQweK-39" value="" style="rounded=0;whiteSpace=wrap;html=1;fillColor=#dae8fc;strokeColor=#6c8ebf;" parent="1" vertex="1">
          <mxGeometry x="890" y="250" width="40" height="40" as="geometry" />
        </mxCell>
        <mxCell id="ZVn86jo5iJJzKrJMQweK-40" value="Container" style="text;html=1;strokeColor=none;fillColor=none;align=left;verticalAlign=middle;whiteSpace=wrap;rounded=0;fontSize=16;spacingLeft=5;" parent="1" vertex="1">
          <mxGeometry x="930" y="250" width="130" height="40" as="geometry" />
        </mxCell>
        <mxCell id="ZVn86jo5iJJzKrJMQweK-41" value="" style="rounded=0;orthogonalLoop=1;jettySize=auto;html=1;endArrow=classic;endFill=1;" parent="1" edge="1">
          <mxGeometry relative="1" as="geometry">
            <mxPoint x="890" y="389.8" as="sourcePoint" />
            <mxPoint x="930" y="389.8" as="targetPoint" />
          </mxGeometry>
        </mxCell>
        <mxCell id="ZVn86jo5iJJzKrJMQweK-42" value="Uses" style="text;html=1;strokeColor=none;fillColor=none;align=left;verticalAlign=middle;whiteSpace=wrap;rounded=0;fontSize=16;spacingLeft=5;" parent="1" vertex="1">
          <mxGeometry x="930" y="370" width="130" height="40" as="geometry" />
        </mxCell>
        <mxCell id="ZVn86jo5iJJzKrJMQweK-43" value="" style="rounded=0;whiteSpace=wrap;html=1;fillColor=#d5e8d4;strokeColor=#82b366;" parent="1" vertex="1">
          <mxGeometry x="890" y="310" width="40" height="40" as="geometry" />
        </mxCell>
        <mxCell id="ZVn86jo5iJJzKrJMQweK-44" value="Component" style="text;html=1;strokeColor=none;fillColor=none;align=left;verticalAlign=middle;whiteSpace=wrap;rounded=0;fontSize=16;spacingLeft=5;" parent="1" vertex="1">
          <mxGeometry x="930" y="310" width="130" height="40" as="geometry" />
        </mxCell>
      </root>
    </mxGraphModel>
  </diagram>
</mxfile>
